<svg width="123" height="58" viewBox="0 0 123 58" fill="none" xmlns="http://www.w3.org/2000/svg">
<path d="M61.136 37.9981V24.6541H56V21.0781H70.7121V24.6541H65.576V37.9981H61.136Z" fill="white"/>
<path d="M71.1406 29.5245C71.1406 27.7645 71.4841 26.2365 72.1726 24.9405C72.8604 23.6285 73.8444 22.6125 75.1246 21.8925C76.4041 21.1725 77.9161 20.8125 79.6606 20.8125C81.4201 20.8125 82.9404 21.1725 84.2206 21.8925C85.5001 22.6125 86.4841 23.6285 87.1726 24.9405C87.8761 26.2365 88.2286 27.7645 88.2286 29.5245C88.2286 31.2685 87.8761 32.7965 87.1726 34.1085C86.4841 35.4205 85.5001 36.4445 84.2206 37.1805C82.9404 37.9005 81.4201 38.2605 79.6606 38.2605C77.9161 38.2605 76.4041 37.9005 75.1246 37.1805C73.8601 36.4445 72.8761 35.4205 72.1726 34.1085C71.4841 32.7965 71.1406 31.2685 71.1406 29.5245ZM75.7726 29.5245C75.7726 30.5805 75.9166 31.4845 76.2046 32.2365C76.4926 32.9885 76.9164 33.5645 77.4766 33.9645C78.0526 34.3645 78.7801 34.5645 79.6606 34.5645C80.9724 34.5645 81.9564 34.1245 82.6126 33.2445C83.2681 32.3485 83.5966 31.1085 83.5966 29.5245C83.5966 28.4685 83.4526 27.5645 83.1646 26.8125C82.8766 26.0605 82.4364 25.4925 81.8446 25.1085C81.2686 24.7085 80.5404 24.5085 79.6606 24.5085C78.3481 24.5085 77.3724 24.9485 76.7326 25.8285C76.0921 26.6925 75.7726 27.9245 75.7726 29.5245Z" fill="white"/>
<path d="M90.8828 37.9981V21.0781H94.1468L102.715 31.7101H102.019V21.0781H106.123V37.9981H102.859L94.3388 27.3661H95.0348V37.9981H90.8828Z" fill="white"/>
<path fill-rule="evenodd" clip-rule="evenodd" d="M48 29C48 37.8366 40.8366 45 32 45C23.1634 45 16 37.8366 16 29C16 20.1634 23.1634 13 32 13C40.8366 13 48 20.1634 48 29ZM36.8404 24L27.234 24.0001C26.9769 24.0001 26.5693 24.0014 26.167 24.1759C25.7919 24.3387 25.48 24.6046 25.2728 24.9373C25.0656 25.27 24.9729 25.6536 25.0068 26.0365C25.0437 26.4528 25.2546 26.7754 25.3909 26.9841L25.3909 26.9841L25.3961 26.992L31.3538 36.6521C31.486 36.8665 31.7313 36.9991 31.9974 37C32.2634 37.0008 32.5097 36.8699 32.6436 36.6564L38.7127 26.9756L38.7184 26.9664C38.9131 26.6445 39 26.2752 39 25.9362C39 25.5794 38.9042 25.2477 38.7184 24.9406C38.7077 24.923 38.6962 24.9057 38.6839 24.889C38.5259 24.6744 38.3003 24.3841 37.8748 24.2C37.5199 24.0463 37.1803 24 36.8404 24ZM27.234 25.383H31.2553V33.7096L26.6838 26.2971L26.6745 26.2824C26.5222 26.0492 26.4964 25.982 26.4912 25.9232C26.4821 25.8206 26.507 25.7181 26.5621 25.6297C26.6171 25.5413 26.6995 25.4714 26.7975 25.4289C26.8684 25.3981 26.9698 25.383 27.234 25.383ZM32.7447 33.7462V25.383H36.8404C37.0218 25.383 37.135 25.4056 37.2456 25.4535C37.2721 25.4649 37.2909 25.4773 37.3153 25.5005C37.3438 25.5275 37.3778 25.567 37.4336 25.6415C37.4868 25.737 37.5106 25.8296 37.5106 25.9362C37.5106 26.0676 37.4748 26.1963 37.4221 26.2854L32.7447 33.7462Z" fill="white"/>
</svg>
